<svg width="64" height="65" viewBox="0 0 64 65" fill="none" xmlns="http://www.w3.org/2000/svg">
<path d="M62.7812 32.5C62.7812 24.1802 60.0667 16.1875 54.2731 10.2165C48.4796 4.24544 40.5883 0.765541 32.2723 0.514577C23.9563 0.263614 15.8695 3.26131 9.72641 8.87212C3.58333 14.4829 0.800237 22.5195 0.298538 30.8242C-0.203161 39.1288 1.61598 47.0485 7.03893 53.358C12.4619 59.6675 20.129 63.617 28.4147 64.3689C36.7004 65.1209 44.9533 62.6163 51.4235 57.3862C57.8938 52.156 62.0727 44.6115 63.0742 36.3523L63.7812 36.4999C62.8096 44.5114 57.0961 51.5663 50.82 56.6396C44.5439 61.7128 33.3184 65.0984 25.2812 64.3689C17.2441 63.6395 13.0272 58.8525 7.76697 52.7323C2.50671 46.612 -0.163118 38.6837 0.32353 30.6282C0.810178 22.5727 4.41504 15.0234 10.3738 9.58095C16.3326 4.13847 21.7147 0.292909 29.7812 0.536344C37.8477 0.779779 47.9644 5.09307 53.5841 10.885C59.2039 16.6769 63.7812 24.4298 63.7812 32.5H62.7812Z" fill="url(#paint0_linear_3495_4195)"/>
<path d="M53.5107 32.4999C53.5107 26.5201 51.589 20.7754 47.4873 16.4837C43.3857 12.192 37.7989 9.69086 31.9115 9.51048C26.0241 9.3301 20.2989 11.4847 15.9498 15.5175C11.6008 19.5502 9.63042 25.3265 9.27524 31.2955C8.92005 37.2644 10.2079 42.9567 14.0472 47.4916C17.8864 52.0266 23.3145 54.8652 29.1805 55.4057C35.0465 55.9462 40.8892 54.146 45.4699 50.3869C50.0506 46.6277 53.0091 41.2051 53.7182 35.2688L54.2187 35.3749C53.5309 41.1332 49.4859 46.2039 45.0427 49.8503C40.5994 53.4967 32.6521 55.93 26.9621 55.4057C21.2721 54.8815 18.2867 51.4408 14.5626 47.0419C10.8385 42.643 8.9484 36.9445 9.29293 31.1546C9.63746 25.3647 12.1896 19.9387 16.4082 16.0269C20.6268 12.1151 24.4371 9.35115 30.1479 9.52612C35.8587 9.70109 43.021 12.8013 46.9996 16.9642C50.9781 21.1271 54.2187 26.6995 54.2187 32.4999H53.5107Z" fill="url(#paint1_linear_3495_4195)"/>
<g clip-path="url(#clip0_3495_4195)">
<path d="M40.6654 26H35.332V27.25H40.6654V40.375H35.332V41.625H41.9987V27.25C41.9987 26.9185 41.8582 26.6005 41.6082 26.3661C41.3581 26.1317 41.019 26 40.6654 26Z" fill="#8F7330"/>
<path d="M33.2546 22.875H24.0813C23.7065 22.875 23.347 23.0146 23.0819 23.2631C22.8169 23.5116 22.668 23.8486 22.668 24.2V41.625H34.668V24.2C34.668 23.8486 34.5191 23.5116 34.254 23.2631C33.989 23.0146 33.6295 22.875 33.2546 22.875ZM33.3346 40.375H31.3346V38.5H26.0013V40.375H24.0013V24.2C24.0013 24.1902 24.0034 24.1804 24.0074 24.1713C24.0114 24.1622 24.0173 24.1539 24.0247 24.147C24.0322 24.14 24.041 24.1345 24.0507 24.1307C24.0604 24.1269 24.0708 24.125 24.0813 24.125H33.2546C33.2651 24.125 33.2755 24.1269 33.2853 24.1307C33.295 24.1345 33.3038 24.14 33.3112 24.147C33.3186 24.1539 33.3245 24.1622 33.3285 24.1713C33.3326 24.1804 33.3346 24.1902 33.3346 24.2V40.375Z" fill="#8F7330"/>
<path d="M25.332 26H26.6654V27.25H25.332V26Z" fill="#8F7330"/>
<path d="M28 26H29.3333V27.25H28V26Z" fill="#8F7330"/>
<path d="M30.668 26H32.0013V27.25H30.668V26Z" fill="#8F7330"/>
<path d="M25.332 29.125H26.6654V30.375H25.332V29.125Z" fill="#8F7330"/>
<path d="M28 29.125H29.3333V30.375H28V29.125Z" fill="#8F7330"/>
<path d="M30.668 29.125H32.0013V30.375H30.668V29.125Z" fill="#8F7330"/>
<path d="M25.332 32.25H26.6654V33.5H25.332V32.25Z" fill="#8F7330"/>
<path d="M28 32.25H29.3333V33.5H28V32.25Z" fill="#8F7330"/>
<path d="M30.668 32.25H32.0013V33.5H30.668V32.25Z" fill="#8F7330"/>
<path d="M25.332 35.375H26.6654V36.625H25.332V35.375Z" fill="#8F7330"/>
<path d="M28 35.375H29.3333V36.625H28V35.375Z" fill="#8F7330"/>
<path d="M30.668 35.375H32.0013V36.625H30.668V35.375Z" fill="#8F7330"/>
<path d="M35.332 29.125H36.6654V30.375H35.332V29.125Z" fill="#8F7330"/>
<path d="M38 29.125H39.3333V30.375H38V29.125Z" fill="#8F7330"/>
<path d="M35.332 32.25H36.6654V33.5H35.332V32.25Z" fill="#8F7330"/>
<path d="M38 32.25H39.3333V33.5H38V32.25Z" fill="#8F7330"/>
<path d="M35.332 35.375H36.6654V36.625H35.332V35.375Z" fill="#8F7330"/>
<path d="M38 35.375H39.3333V36.625H38V35.375Z" fill="#8F7330"/>
</g>
<defs>
<linearGradient id="paint0_linear_3495_4195" x1="32" y1="0.5" x2="32" y2="64.5" gradientUnits="userSpaceOnUse">
<stop stop-color="#8F7330"/>
<stop offset="1" stop-color="#4E3908"/>
</linearGradient>
<linearGradient id="paint1_linear_3495_4195" x1="31.7187" y1="9.5" x2="31.7187" y2="55.4999" gradientUnits="userSpaceOnUse">
<stop stop-color="#8F7330"/>
<stop offset="1" stop-color="#4E3908"/>
</linearGradient>
<clipPath id="clip0_3495_4195">
<rect width="24" height="22.5" fill="white" transform="translate(20 21)"/>
</clipPath>
</defs>
</svg>
