<svg width="83" height="82" viewBox="0 0 83 82" fill="none" xmlns="http://www.w3.org/2000/svg">
<g clip-path="url(#clip0_3378_4404)">
<path d="M40.8125 -0.437514C41.6 -0.429941 42.3876 -0.422367 43.199 -0.414565C54.4276 -0.0988485 64.3247 4.16311 72.1953 12.2578C80.1525 21.6243 83.4126 31.4688 83.2773 43.6719C82.5152 52.8176 79.5052 61.3833 73 68C72.01 68.495 72.01 68.495 71 69C72.8714 64.0909 75.2545 59.5041 77.6602 54.8398C81.6331 46.419 81.0592 36.0895 78.0391 27.4101C72.9672 15.6456 65.8784 8.74422 54 3.99999C43.1238 0.5347 32.1702 1.98249 22 6.99999C17.1707 10.1801 13.0402 13.8785 9 18C9 14.4882 9.98124 13.2053 12.2539 10.6172C20.1547 3.29962 30.1629 -0.582001 40.8125 -0.437514Z" fill="#A484F9"/>
<path d="M2 30C3.08656 33.4603 3.00539 36.5177 2.875 40.125C2.82625 51.0333 6.25214 60.5618 13.5938 68.7852C21.2136 75.812 31.3831 80.2024 41.793 79.9258C44.5445 79.6943 47.2645 79.374 50 79C51.5625 78.8124 53.125 78.6249 54.6875 78.4375C55.7806 78.2931 56.8737 78.1488 58 78C57 80 57 80 54.4805 81.1016C42.504 84.1931 30.4318 82.4233 19.6172 76.75C10.2004 71.1319 4.10079 62.4236 1 52C0.101658 48.2928 -0.163188 44.8121 -0.1875 41C-0.20168 39.9894 -0.215859 38.9787 -0.230469 37.9375C0.00695069 34.9114 0.726758 32.7377 2 30Z" fill="#A685F9"/>
<path d="M66 24C68.3834 24.9504 69.7239 25.5312 71.0469 27.7773C74.0691 37.0622 74.2018 46.0711 70 55C65.8814 62.9337 60.4674 67.7411 52.2109 71.1523C48.4627 72.1418 44.9662 72.2218 41.125 72.125C40.4366 72.116 39.7483 72.107 39.0391 72.0977C37.3592 72.0743 35.6796 72.0385 34 72C33.67 71.34 33.34 70.68 33 70C33.6175 70.0232 34.2349 70.0464 34.8711 70.0703C45.268 70.2919 53.6863 68.6481 62 62C67.9974 55.0875 70.4611 48.1323 70.3359 39.0352C69.7517 33.7569 67.9246 28.9231 66 24Z" fill="#A284F9"/>
<path d="M44.9985 10.0002C44.9985 10.3302 44.9985 10.6602 44.9985 11.0002C43.6565 11.2207 43.6565 11.2207 42.2875 11.4456C32.1158 13.3324 23.6483 15.719 17.4985 24.5002C13.9779 30.1495 12.7379 35.2334 12.8735 41.8752C12.8915 43.0277 12.9096 44.1801 12.9282 45.3674C12.9514 46.2363 12.9746 47.1051 12.9985 48.0002C12.0085 48.4952 12.0085 48.4952 10.9985 49.0002C8.46229 43.9279 9.54023 36.6558 11.1235 31.3752C15.072 21.1566 21.0819 15.3082 30.8735 10.6252C35.5748 9.68498 40.2214 9.84724 44.9985 10.0002Z" fill="#A582FA"/>
<path d="M58 78.9997C51.6 82.0766 51.6 82.0766 48.5625 81.6872C48.0469 81.4603 47.5312 81.2334 47 80.9997C51.0124 78.3248 53.3658 77.5101 58 78.9997Z" fill="#9B7BFB"/>
</g>
<defs>
<clipPath id="clip0_3378_4404">
<rect width="83" height="82" fill="white"/>
</clipPath>
</defs>
</svg>
