<svg width="64" height="65" viewBox="0 0 64 65" fill="none" xmlns="http://www.w3.org/2000/svg">
<path d="M62.7812 32.5C62.7812 24.1802 60.0667 16.1875 54.2731 10.2165C48.4796 4.24544 40.5883 0.765541 32.2723 0.514577C23.9563 0.263614 15.8695 3.26131 9.72641 8.87212C3.58333 14.4829 0.800237 22.5195 0.298538 30.8242C-0.203161 39.1288 1.61598 47.0485 7.03893 53.358C12.4619 59.6675 20.129 63.617 28.4147 64.3689C36.7004 65.1209 44.9533 62.6163 51.4235 57.3862C57.8938 52.156 62.0727 44.6115 63.0742 36.3523L63.7812 36.4999C62.8096 44.5114 57.0961 51.5663 50.82 56.6396C44.5439 61.7128 33.3184 65.0984 25.2812 64.3689C17.2441 63.6395 13.0272 58.8525 7.76697 52.7323C2.50671 46.612 -0.163118 38.6837 0.32353 30.6282C0.810178 22.5727 4.41504 15.0234 10.3738 9.58095C16.3326 4.13847 21.7147 0.292909 29.7812 0.536344C37.8477 0.779779 47.9644 5.09307 53.5841 10.885C59.2039 16.6769 63.7812 24.4298 63.7812 32.5H62.7812Z" fill="url(#paint0_linear_3495_4195)"/>
<path d="M53.5107 32.4999C53.5107 26.5201 51.589 20.7754 47.4873 16.4837C43.3857 12.192 37.7989 9.69086 31.9115 9.51048C26.0241 9.3301 20.2989 11.4847 15.9498 15.5175C11.6008 19.5502 9.63042 25.3265 9.27524 31.2955C8.92005 37.2644 10.2079 42.9567 14.0472 47.4916C17.8864 52.0266 23.3145 54.8652 29.1805 55.4057C35.0465 55.9462 40.8892 54.146 45.4699 50.3869C50.0506 46.6277 53.0091 41.2051 53.7182 35.2688L54.2187 35.3749C53.5309 41.1332 49.4859 46.2039 45.0427 49.8503C40.5994 53.4967 32.6521 55.93 26.9621 55.4057C21.2721 54.8815 18.2867 51.4408 14.5626 47.0419C10.8385 42.643 8.9484 36.9445 9.29293 31.1546C9.63746 25.3647 12.1896 19.9387 16.4082 16.0269C20.6268 12.1151 24.4371 9.35115 30.1479 9.52612C35.8587 9.70109 43.021 12.8013 46.9996 16.9642C50.9781 21.1271 54.2187 26.6995 54.2187 32.4999H53.5107Z" fill="url(#paint1_linear_3495_4195)"/>
<g clip-path="url(#clip0_3495_4195)">
<path fill-rule="evenodd" clip-rule="evenodd" d="M32.464 21.1395C32.3285 21.0491 32.1663 21.0005 32 21.0005C31.8337 21.0005 31.6715 21.0491 31.536 21.1395L20.336 28.6395C20.2322 28.7088 20.1475 28.8004 20.0891 28.9066C20.0306 29.0128 20.0001 29.1305 20 29.25V42.75C20 42.9489 20.0843 43.1397 20.2343 43.2804C20.3843 43.421 20.5878 43.5 20.8 43.5H23.2V33H31.2V43.5H43.2C43.4122 43.5 43.6157 43.421 43.7657 43.2804C43.9157 43.1397 44 42.9489 44 42.75V29.25C43.9999 29.1305 43.9694 29.0128 43.9109 28.9066C43.8525 28.8004 43.7678 28.7088 43.664 28.6395L42.4 27.792V24H40.8V26.721L32.464 21.1395ZM37.6 39V33H39.2V39H37.6Z" fill="#8F7330"/>
<path d="M29.6008 43.5V39H28.0008V37.5H29.6008V34.5H24.8008V43.5H29.6008Z" fill="#8F7330"/>
</g>
<defs>
<linearGradient id="paint0_linear_3495_4195" x1="32" y1="0.5" x2="32" y2="64.5" gradientUnits="userSpaceOnUse">
<stop stop-color="#8F7330"/>
<stop offset="1" stop-color="#4E3908"/>
</linearGradient>
<linearGradient id="paint1_linear_3495_4195" x1="31.7187" y1="9.5" x2="31.7187" y2="55.4999" gradientUnits="userSpaceOnUse">
<stop stop-color="#8F7330"/>
<stop offset="1" stop-color="#4E3908"/>
</linearGradient>
<clipPath id="clip0_3495_4195">
<rect width="24" height="22.5" fill="white" transform="translate(20 21)"/>
</clipPath>
</defs>
</svg>
