<svg width="64" height="65" viewBox="0 0 64 65" fill="none" xmlns="http://www.w3.org/2000/svg">
<path d="M62.7812 32.5C62.7812 24.1802 60.0667 16.1875 54.2731 10.2165C48.4796 4.24544 40.5883 0.765541 32.2723 0.514577C23.9563 0.263614 15.8695 3.26131 9.72641 8.87212C3.58333 14.4829 0.800237 22.5195 0.298538 30.8242C-0.203161 39.1288 1.61598 47.0485 7.03893 53.358C12.4619 59.6675 20.129 63.617 28.4147 64.3689C36.7004 65.1209 44.9533 62.6163 51.4235 57.3862C57.8938 52.156 62.0727 44.6115 63.0742 36.3523L63.7812 36.4999C62.8096 44.5114 57.0961 51.5663 50.82 56.6396C44.5439 61.7128 33.3184 65.0984 25.2812 64.3689C17.2441 63.6395 13.0272 58.8525 7.76697 52.7323C2.50671 46.612 -0.163118 38.6837 0.32353 30.6282C0.810178 22.5727 4.41504 15.0234 10.3738 9.58095C16.3326 4.13847 21.7147 0.292909 29.7812 0.536344C37.8477 0.779779 47.9644 5.09307 53.5841 10.885C59.2039 16.6769 63.7812 24.4298 63.7812 32.5H62.7812Z" fill="url(#paint0_linear_3495_4195)"/>
<path d="M53.5107 32.4999C53.5107 26.5201 51.589 20.7754 47.4873 16.4837C43.3857 12.192 37.7989 9.69086 31.9115 9.51048C26.0241 9.3301 20.2989 11.4847 15.9498 15.5175C11.6008 19.5502 9.63042 25.3265 9.27524 31.2955C8.92005 37.2644 10.2079 42.9567 14.0472 47.4916C17.8864 52.0266 23.3145 54.8652 29.1805 55.4057C35.0465 55.9462 40.8892 54.146 45.4699 50.3869C50.0506 46.6277 53.0091 41.2051 53.7182 35.2688L54.2187 35.3749C53.5309 41.1332 49.4859 46.2039 45.0427 49.8503C40.5994 53.4967 32.6521 55.93 26.9621 55.4057C21.2721 54.8815 18.2867 51.4408 14.5626 47.0419C10.8385 42.643 8.9484 36.9445 9.29293 31.1546C9.63746 25.3647 12.1896 19.9387 16.4082 16.0269C20.6268 12.1151 24.4371 9.35115 30.1479 9.52612C35.8587 9.70109 43.021 12.8013 46.9996 16.9642C50.9781 21.1271 54.2187 26.6995 54.2187 32.4999H53.5107Z" fill="url(#paint1_linear_3495_4195)"/>
<path d="M22.5264 38.5C21.8918 38.5 21.3485 38.2705 20.8966 37.8115C20.4447 37.3526 20.2188 36.8008 20.2188 36.1562V23.8437C20.2188 23.1992 20.4447 22.6474 20.8966 22.1884C21.3485 21.7295 21.8918 21.5 22.5264 21.5H41.911C42.5457 21.5 43.089 21.7295 43.5409 22.1884C43.9928 22.6474 44.2187 23.1992 44.2187 23.8437V36.1562C44.2187 36.8008 43.9928 37.3526 43.5409 37.8115C43.089 38.2705 42.5457 38.5 41.911 38.5H22.5264ZM38.9264 33.125H36.7726C36.5237 33.125 36.3179 33.2074 36.155 33.3722C35.9924 33.5368 35.911 33.7451 35.911 33.9972C35.911 34.249 35.9924 34.4583 36.155 34.625C36.3179 34.7916 36.5237 34.875 36.7726 34.875H39.5264C39.8444 34.875 40.1162 34.7604 40.3418 34.5312C40.5674 34.3021 40.6803 34.026 40.6803 33.7031V30.9219C40.6803 30.6719 40.5956 30.4609 40.4264 30.289C40.2572 30.1172 40.0495 30.0312 39.8033 30.0312C39.5572 30.0312 39.3495 30.1172 39.1803 30.289C39.011 30.4609 38.9264 30.6719 38.9264 30.9219V33.125ZM32.2224 33.625C33.2148 33.625 34.0572 33.2722 34.7495 32.5665C35.4418 31.8609 35.788 31.0042 35.788 29.9962C35.788 28.9883 35.4406 28.1328 34.7458 27.4297C34.051 26.7266 33.2074 26.375 32.215 26.375C31.2226 26.375 30.3803 26.7278 29.688 27.4334C28.9957 28.1391 28.6495 28.9958 28.6495 30.0037C28.6495 31.0117 28.9969 31.8672 29.6917 32.5703C30.3864 33.2734 31.23 33.625 32.2224 33.625ZM25.511 26.875H27.6649C27.9137 26.875 28.1196 26.7926 28.2824 26.6278C28.4451 26.4632 28.5264 26.2549 28.5264 26.0028C28.5264 25.7509 28.4451 25.5417 28.2824 25.375C28.1196 25.2083 27.9137 25.125 27.6649 25.125H24.9111C24.5931 25.125 24.3213 25.2396 24.0957 25.4687C23.87 25.6979 23.7572 25.974 23.7572 26.2969V29.0781C23.7572 29.3281 23.8418 29.539 24.0111 29.7109C24.1803 29.8828 24.388 29.9687 24.6341 29.9687C24.8803 29.9687 25.088 29.8828 25.2572 29.7109C25.4264 29.539 25.511 29.3281 25.511 29.0781V26.875Z" fill="#8F7330"/>
<path d="M20.2188 40.5218C20.2188 39.9611 20.6798 39.5099 21.2405 39.5221L42.1107 39.9758C42.7034 39.9887 43.1548 40.5114 43.0813 41.0996L42.8463 42.9791C42.7764 43.5381 42.2594 43.9294 41.7023 43.8458C39.8328 43.5653 35.9707 42.9999 35.2187 42.9999C34.3721 42.9999 24.2085 41.9248 21.1098 41.595C20.6016 41.5409 20.2188 41.1123 20.2188 40.6013V40.5218Z" fill="#8F7330"/>
<defs>
<linearGradient id="paint0_linear_3495_4195" x1="32" y1="0.5" x2="32" y2="64.5" gradientUnits="userSpaceOnUse">
<stop stop-color="#8F7330"/>
<stop offset="1" stop-color="#4E3908"/>
</linearGradient>
<linearGradient id="paint1_linear_3495_4195" x1="31.7187" y1="9.5" x2="31.7187" y2="55.4999" gradientUnits="userSpaceOnUse">
<stop stop-color="#8F7330"/>
<stop offset="1" stop-color="#4E3908"/>
</linearGradient>
</defs>
</svg>
