<svg width="56" height="56" viewBox="0 0 56 56" fill="none" xmlns="http://www.w3.org/2000/svg">
<mask id="mask0_3321_4450" style="mask-type:alpha" maskUnits="userSpaceOnUse" x="0" y="16" width="24" height="24">
<rect y="16" width="24" height="24" fill="#D9D9D9"/>
</mask>
<g mask="url(#mask0_3321_4450)">
<path d="M11.9984 34.0597L7.92437 36.5162C7.62737 36.6945 7.32429 36.773 7.01512 36.7517C6.70612 36.7302 6.43745 36.6303 6.20912 36.4522C5.97145 36.2833 5.79795 36.0592 5.68862 35.7799C5.57912 35.5006 5.5577 35.1957 5.62437 34.8652L6.71687 30.2162L3.09287 27.0674C2.83137 26.8557 2.66854 26.6019 2.60437 26.3059C2.5402 26.0099 2.54979 25.7217 2.63312 25.4412C2.72595 25.1702 2.88879 24.9372 3.12162 24.7424C3.35462 24.5474 3.64104 24.4332 3.98087 24.3999L8.73312 23.9857L10.5756 19.5977C10.7111 19.2767 10.9079 19.0419 11.1659 18.8934C11.4237 18.7447 11.7012 18.6704 11.9984 18.6704C12.2955 18.6704 12.573 18.7447 12.8309 18.8934C13.0889 19.0419 13.2856 19.2767 13.4211 19.5977L15.2636 23.9857L20.0159 24.3999C20.3557 24.4332 20.6421 24.5474 20.8751 24.7424C21.108 24.9372 21.2708 25.1702 21.3636 25.4412C21.447 25.7217 21.4565 26.0099 21.3924 26.3059C21.3282 26.6019 21.1654 26.8557 20.9039 27.0674L17.2799 30.2162L18.3724 34.8652C18.439 35.1957 18.4176 35.5006 18.3081 35.7799C18.1988 36.0592 18.0253 36.2833 17.7876 36.4522C17.5593 36.6303 17.2906 36.7302 16.9816 36.7517C16.6725 36.773 16.3694 36.6945 16.0724 36.5162L11.9984 34.0597Z" fill="#808080"/>
</g>
<mask id="mask1_3321_4450" style="mask-type:alpha" maskUnits="userSpaceOnUse" x="28" y="20" width="16" height="16">
<rect x="28" y="20" width="16" height="16" fill="#D9D9D9"/>
</mask>
<g mask="url(#mask1_3321_4450)">
<path d="M36.0015 32.0398L33.2855 33.6774C33.0875 33.7963 32.8855 33.8487 32.6794 33.8344C32.4734 33.8201 32.2942 33.7536 32.142 33.6348C31.9836 33.5222 31.8679 33.3728 31.795 33.1866C31.722 33.0004 31.7077 32.7971 31.7522 32.5768L32.4805 29.4774L30.0645 27.3783C29.8902 27.2372 29.7816 27.0679 29.7389 26.8706C29.6961 26.6733 29.7025 26.4811 29.758 26.2941C29.8199 26.1134 29.9285 25.9582 30.0837 25.8283C30.239 25.6983 30.43 25.6222 30.6565 25.5999L33.8247 25.3238L35.053 22.3984C35.1434 22.1844 35.2745 22.0279 35.4465 21.9289C35.6184 21.8298 35.8034 21.7803 36.0015 21.7803C36.1996 21.7803 36.3846 21.8298 36.5565 21.9289C36.7285 22.0279 36.8597 22.1844 36.95 22.3984L38.1784 25.3238L41.3465 25.5999C41.5731 25.6222 41.764 25.6983 41.9194 25.8283C42.0746 25.9582 42.1831 26.1134 42.245 26.2941C42.3006 26.4811 42.307 26.6733 42.2642 26.8706C42.2214 27.0679 42.1129 27.2372 41.9385 27.3783L39.5225 29.4774L40.2509 32.5768C40.2953 32.7971 40.281 33.0004 40.208 33.1866C40.1351 33.3728 40.0195 33.5222 39.861 33.6348C39.7088 33.7536 39.5297 33.8201 39.3237 33.8344C39.1176 33.8487 38.9155 33.7963 38.7175 33.6774L36.0015 32.0398Z" fill="#262626"/>
</g>
<mask id="mask2_3321_4450" style="mask-type:alpha" maskUnits="userSpaceOnUse" x="48" y="24" width="8" height="8">
<rect x="48" y="24" width="8" height="8" fill="#D9D9D9"/>
</mask>
<g mask="url(#mask2_3321_4450)">
<path d="M49.5966 31.4699L50.2401 28.7387L48.1133 26.8974L50.9122 26.6619L52.0006 24.0854L53.089 26.6619L55.8879 26.8974L53.7611 28.7387L54.4046 31.4699L52.0006 30.0199L49.5966 31.4699Z" fill="#262626"/>
</g>
</svg>
