<svg width="64" height="65" viewBox="0 0 64 65" fill="none" xmlns="http://www.w3.org/2000/svg">
<path d="M62.7812 32.5C62.7812 24.1802 60.0667 16.1875 54.2731 10.2165C48.4796 4.24544 40.5883 0.765541 32.2723 0.514577C23.9563 0.263614 15.8695 3.26131 9.72641 8.87212C3.58333 14.4829 0.800237 22.5195 0.298538 30.8242C-0.203161 39.1288 1.61598 47.0485 7.03893 53.358C12.4619 59.6675 20.129 63.617 28.4147 64.3689C36.7004 65.1209 44.9533 62.6163 51.4235 57.3862C57.8938 52.156 62.0727 44.6115 63.0742 36.3523L63.7812 36.4999C62.8096 44.5114 57.0961 51.5663 50.82 56.6396C44.5439 61.7128 33.3184 65.0984 25.2812 64.3689C17.2441 63.6395 13.0272 58.8525 7.76697 52.7323C2.50671 46.612 -0.163118 38.6837 0.32353 30.6282C0.810178 22.5727 4.41504 15.0234 10.3738 9.58095C16.3326 4.13847 21.7147 0.292909 29.7812 0.536344C37.8477 0.779779 47.9644 5.09307 53.5841 10.885C59.2039 16.6769 63.7812 24.4298 63.7812 32.5H62.7812Z" fill="url(#paint0_linear_3495_4195)"/>
<path d="M53.5107 32.4999C53.5107 26.5201 51.589 20.7754 47.4873 16.4837C43.3857 12.192 37.7989 9.69086 31.9115 9.51048C26.0241 9.3301 20.2989 11.4847 15.9498 15.5175C11.6008 19.5502 9.63042 25.3265 9.27524 31.2955C8.92005 37.2644 10.2079 42.9567 14.0472 47.4916C17.8864 52.0266 23.3145 54.8652 29.1805 55.4057C35.0465 55.9462 40.8892 54.146 45.4699 50.3869C50.0506 46.6277 53.0091 41.2051 53.7182 35.2688L54.2187 35.3749C53.5309 41.1332 49.4859 46.2039 45.0427 49.8503C40.5994 53.4967 32.6521 55.93 26.9621 55.4057C21.2721 54.8815 18.2867 51.4408 14.5626 47.0419C10.8385 42.643 8.9484 36.9445 9.29293 31.1546C9.63746 25.3647 12.1896 19.9387 16.4082 16.0269C20.6268 12.1151 24.4371 9.35115 30.1479 9.52612C35.8587 9.70109 43.021 12.8013 46.9996 16.9642C50.9781 21.1271 54.2187 26.6995 54.2187 32.4999H53.5107Z" fill="url(#paint1_linear_3495_4195)"/>
<g clip-path="url(#clip0_3495_4195)">
<path d="M27.5 32.25C27.5 33.3689 27.9741 34.4419 28.818 35.2331C29.6619 36.0243 30.8065 36.4688 32 36.4688C33.1935 36.4688 34.3381 36.0243 35.182 35.2331C36.0259 34.4419 36.5 33.3689 36.5 32.25C36.5 31.1311 36.0259 30.0581 35.182 29.2669C34.3381 28.4757 33.1935 28.0312 32 28.0312C30.8065 28.0312 29.6619 28.4757 28.818 29.2669C27.9741 30.0581 27.5 31.1311 27.5 32.25ZM32 26.4656C32.2652 26.4656 32.5196 26.3669 32.7071 26.191C32.8946 26.0152 33 25.7768 33 25.5281V21.9375C33 21.6889 32.8946 21.4504 32.7071 21.2746C32.5196 21.0988 32.2652 21 32 21C31.7348 21 31.4804 21.0988 31.2929 21.2746C31.1054 21.4504 31 21.6889 31 21.9375V25.5281C31 25.7768 31.1054 26.0152 31.2929 26.191C31.4804 26.3669 31.7348 26.4656 32 26.4656ZM32 38.0344C31.7348 38.0344 31.4804 38.1331 31.2929 38.309C31.1054 38.4848 31 38.7232 31 38.9719V42.5625C31 42.8111 31.1054 43.0496 31.2929 43.2254C31.4804 43.4012 31.7348 43.5 32 43.5C32.2652 43.5 32.5196 43.4012 32.7071 43.2254C32.8946 43.0496 33 42.8111 33 42.5625V38.9719C33 38.7232 32.8946 38.4848 32.7071 38.309C32.5196 38.1331 32.2652 38.0344 32 38.0344ZM26.22 28.1625C26.4074 28.3371 26.6608 28.4351 26.925 28.4351C27.1892 28.4351 27.4426 28.3371 27.63 28.1625C27.7237 28.0753 27.7981 27.9717 27.8489 27.8574C27.8997 27.7432 27.9258 27.6206 27.9258 27.4969C27.9258 27.3731 27.8997 27.2506 27.8489 27.1363C27.7981 27.0221 27.7237 26.9184 27.63 26.8312L24.93 24.3C24.8374 24.2126 24.7274 24.1431 24.6062 24.0956C24.4849 24.048 24.3549 24.0234 24.2235 24.0229C23.9582 24.022 23.7033 24.12 23.515 24.2953C23.4218 24.3821 23.3477 24.4853 23.297 24.5989C23.2462 24.7125 23.2199 24.8344 23.2194 24.9576C23.2185 25.2064 23.323 25.4453 23.51 25.6219L26.22 28.1625ZM37.78 36.3469C37.5926 36.1723 37.3392 36.0743 37.075 36.0743C36.8108 36.0743 36.5574 36.1723 36.37 36.3469C36.1837 36.5225 36.0792 36.7601 36.0792 37.0078C36.0792 37.2555 36.1837 37.4931 36.37 37.6688L39.07 40.2094C39.163 40.2972 39.2736 40.367 39.3954 40.4146C39.5173 40.4622 39.648 40.4867 39.78 40.4867C39.912 40.4867 40.0427 40.4622 40.1646 40.4146C40.2864 40.367 40.397 40.2972 40.49 40.2094C40.5837 40.1222 40.6581 40.0185 40.7089 39.9043C40.7597 39.79 40.7858 39.6675 40.7858 39.5438C40.7858 39.42 40.7597 39.2975 40.7089 39.1832C40.6581 39.069 40.5837 38.9653 40.49 38.8781L37.78 36.3469ZM25.83 32.7188C25.83 32.4701 25.7246 32.2317 25.5371 32.0558C25.3496 31.88 25.0952 31.7812 24.83 31.7812H21C20.7348 31.7812 20.4804 31.88 20.2929 32.0558C20.1054 32.2317 20 32.4701 20 32.7188C20 32.9674 20.1054 33.2058 20.2929 33.3817C20.4804 33.5575 20.7348 33.6562 21 33.6562H24.83C25.0952 33.6562 25.3496 33.5575 25.5371 33.3817C25.7246 33.2058 25.83 32.9674 25.83 32.7188ZM43 31.7812H39.17C38.9048 31.7812 38.6504 31.88 38.4629 32.0558C38.2754 32.2317 38.17 32.4701 38.17 32.7188C38.17 32.9674 38.2754 33.2058 38.4629 33.3817C38.6504 33.5575 38.9048 33.6562 39.17 33.6562H43C43.2652 33.6562 43.5196 33.5575 43.7071 33.3817C43.8946 33.2058 44 32.9674 44 32.7188C44 32.4701 43.8946 32.2317 43.7071 32.0558C43.5196 31.88 43.2652 31.7812 43 31.7812ZM26.22 36.3469L23.51 38.8781C23.4163 38.9653 23.3419 39.069 23.2911 39.1832C23.2403 39.2975 23.2142 39.42 23.2142 39.5438C23.2142 39.6675 23.2403 39.79 23.2911 39.9043C23.3419 40.0185 23.4163 40.1222 23.51 40.2094C23.603 40.2972 23.7136 40.367 23.8354 40.4146C23.9573 40.4622 24.088 40.4867 24.22 40.4867C24.352 40.4867 24.4827 40.4622 24.6046 40.4146C24.7264 40.367 24.837 40.2972 24.93 40.2094L27.63 37.6688C27.7938 37.4894 27.8794 37.2587 27.8697 37.0228C27.86 36.7868 27.7557 36.563 27.5776 36.396C27.3995 36.2291 27.1607 36.1313 26.9091 36.1221C26.6574 36.113 26.4113 36.1933 26.22 36.3469ZM37.07 28.425C37.3344 28.4289 37.5897 28.3346 37.78 28.1625L40.49 25.6219C40.5826 25.5345 40.6559 25.4308 40.7057 25.3168C40.7556 25.2029 40.781 25.0808 40.7806 24.9576C40.7801 24.8344 40.7538 24.7125 40.703 24.5989C40.6523 24.4853 40.5782 24.3821 40.485 24.2953C40.3918 24.2085 40.2812 24.1398 40.1596 24.0931C40.0381 24.0463 39.9079 24.0225 39.7765 24.0229C39.6451 24.0234 39.5151 24.048 39.3938 24.0956C39.2726 24.1431 39.1626 24.2126 39.07 24.3L36.37 26.8312C36.2763 26.9184 36.2019 27.0221 36.1511 27.1363C36.1003 27.2506 36.0742 27.3731 36.0742 27.4969C36.0742 27.6206 36.1003 27.7432 36.1511 27.8574C36.2019 27.9717 36.2763 28.0753 36.37 28.1625C36.5579 28.3323 36.8091 28.4265 37.07 28.425Z" fill="#8F7330"/>
</g>
<defs>
<linearGradient id="paint0_linear_3495_4195" x1="32" y1="0.5" x2="32" y2="64.5" gradientUnits="userSpaceOnUse">
<stop stop-color="#8F7330"/>
<stop offset="1" stop-color="#4E3908"/>
</linearGradient>
<linearGradient id="paint1_linear_3495_4195" x1="31.7187" y1="9.5" x2="31.7187" y2="55.4999" gradientUnits="userSpaceOnUse">
<stop stop-color="#8F7330"/>
<stop offset="1" stop-color="#4E3908"/>
</linearGradient>
<clipPath id="clip0_3495_4195">
<rect width="24" height="22.5" fill="white" transform="translate(20 21)"/>
</clipPath>
</defs>
</svg>
